<svg id="Layer_1" data-name="Layer 1" xmlns="http://www.w3.org/2000/svg" viewBox="0 0 1000.55 975.84"><defs><style>.cls-1,.cls-2{fill:#fff;}.cls-1{fill-rule:evenodd;}</style></defs><path class="cls-1" d="M499.73,11.68C223.47,11.68-.55,235.65-.55,512c0,221,143.35,408.56,342.12,474.71,25,4.63,34.18-10.86,34.18-24.07,0-11.92-.46-51.34-.68-93.14-139.17,30.27-168.54-59-168.54-59C183.77,752.6,151,737.22,151,737.22c-45.39-31.05,3.43-30.41,3.43-30.41,50.23,3.53,76.68,51.56,76.68,51.56,44.62,76.48,117,54.37,145.59,41.59,4.49-32.33,17.45-54.41,31.76-66.9C297.32,720.41,180.5,677.51,180.5,485.82c0-54.62,19.55-99.24,51.56-134.28-5.2-12.6-22.32-63.48,4.84-132.4,0,0,42-13.43,137.61,51.29,39.91-11.08,82.7-16.64,125.22-16.84,42.51.2,85.34,5.76,125.32,16.84,95.49-64.72,137.44-51.29,137.44-51.29,27.23,68.92,10.1,119.8,4.91,132.4,32.08,35,51.49,79.66,51.49,134.28,0,192.15-117,234.45-228.44,246.84,17.94,15.53,33.93,46,33.93,92.64,0,66.94-.57,120.81-.57,137.29,0,13.32,9,28.92,34.36,24C856.84,920.37,1000,732.91,1000,512,1000,235.65,776,11.68,499.73,11.68Z" transform="translate(0.55 -11.68)"/><path class="cls-2" d="M188.93,730c-1.1,2.49-5,3.23-8.57,1.53s-5.66-5-4.49-7.52,5-3.27,8.62-1.56,5.7,5.06,4.44,7.55Zm-6.15-4.56" transform="translate(0.55 -11.68)"/><path class="cls-2" d="M209.2,752.56c-2.39,2.21-7,1.18-10.22-2.31s-3.88-8.16-1.46-10.4,7-1.17,10.26,2.32,3.91,8.15,1.42,10.39Zm-4.77-5.12" transform="translate(0.55 -11.68)"/><path class="cls-2" d="M228.93,781.37c-3.07,2.14-8.09.14-11.19-4.31s-3.06-9.79.08-11.92,8-.22,11.18,4.19,3.06,9.87-.07,12Zm0,0" transform="translate(0.55 -11.68)"/><path class="cls-2" d="M256,809.21c-2.75,3-8.59,2.21-12.86-1.92s-5.59-9.75-2.85-12.78,8.66-2.18,13,1.92,5.67,9.79,2.75,12.78Zm0,0" transform="translate(0.55 -11.68)"/><path class="cls-2" d="M293.23,825.37c-1.22,3.92-6.84,5.7-12.5,4s-9.36-6.3-8.22-10.26,6.82-5.8,12.53-4,9.36,6.27,8.19,10.25Zm0,0" transform="translate(0.55 -11.68)"/><path class="cls-2" d="M334.17,828.37c.14,4.12-4.67,7.55-10.61,7.62s-10.83-3.2-10.89-7.27,4.7-7.54,10.68-7.65,10.82,3.2,10.82,7.3Zm0,0" transform="translate(0.55 -11.68)"/><path class="cls-2" d="M372.27,821.89c.71,4-3.43,8.15-9.33,9.25s-11.18-1.42-11.93-5.41,3.49-8.26,9.29-9.33,11.21,1.39,12,5.49Zm0,0" transform="translate(0.55 -11.68)"/></svg>